# xmcd
#
# Track frame offsets:
#	150
#	9891
#	30283
#	48142
#	66022
#	84068
#	101410
#	117376
#	125480
#	141028
#	158931
#	164379
#	179735
#	196694
#	213926
#	234792
#	251169
#	269059
#	274892
#
# Disc length: 3934 seconds
#
# Revision: 3
# Processed by: cddbd v1.5.2PL0 Copyright (c) Steve Scherf et al.
# Submitted via: audiograbber 1.83.01
#
DISCID=fa0f5c13
DTITLE=Dru Down - Pimpin Phernelia
DYEAR=2001
DGENRE=Rap
TTITLE0=Dru Down - The Pimp Hunters
TTITLE1=Dru Down - I'm A Pimp
TTITLE2=Dru Down - What's Wrong
TTITLE3=Dru Down - I'm Ready
TTITLE4=Dru Down, Johnny (Hook) Atkins - Life Story
TTITLE5=Dru Down, Yukmouth, Enemy - No Underwear
TTITLE6=Dru Down, Space - I Do
TTITLE7=Dru Down - Tha Track
TTITLE8=Dru Down - Hey There, Hi There
TTITLE9=Dru Down, Pinky - You Know
TTITLE10=Dru Down - Ms. Freaky
TTITLE11=Dru Down, Boss - Nasty
TTITLE12=Dru Down, Malikah, J Coleone - Money
TTITLE13=Dru Down - Let's Get High
TTITLE14=Dru Down - Make U Wanna
TTITLE15=Dru Down - Things May Change
TTITLE16=Dru Down, Sisco - Lap Dance
TTITLE17=Dru Down - Condo With Lil Pimpydo
TTITLE18=Dru Down - No.2
EXTD=www.RapMusicGuide.com\n
EXTT0=
EXTT1=
EXTT2=
EXTT3=
EXTT4=
EXTT5=
EXTT6=
EXTT7=
EXTT8=
EXTT9=
EXTT10=
EXTT11=
EXTT12=
EXTT13=
EXTT14=
EXTT15=
EXTT16=
EXTT17=
EXTT18=
PLAYORDER=
